<svg xmlns:xlink="http://www.w3.org/1999/xlink" xmlns="http://www.w3.org/2000/svg" version="1.1" viewBox="0 0 16 16" class="svg-icon svg-fill" style="width: 14px; height: 14px;" width="24"  height="24" ><g fill="none"><path pid="0" fill="#557EBF" d="M15.85 8.2c0-.55-.05-1.1-.15-1.65H8.15v3.1h4.3c-.2 1-.75 1.85-1.6 2.4v2h2.6c1.5-1.4 2.4-3.45 2.4-5.85z"></path><path pid="1" fill="#36A852" d="M8.15 16c2.15 0 3.95-.7 5.3-1.95l-2.6-2c-.7.5-1.65.75-2.7.75-2.1 0-3.85-1.4-4.5-3.3H1v2.05C2.35 14.2 5.05 16 8.15 16z"></path><path pid="2" fill="#F9BC15" d="M3.7 9.5c-.15-.5-.25-1-.25-1.5s.1-1.05.25-1.5V4.4H1C.45 5.5.15 6.7.15 8c0 1.3.3 2.5.85 3.6l2.7-2.1z"></path><path pid="3" fill="#EA4535" d="M8.15 3.2c1.15 0 2.25.4 3.05 1.2l2.3-2.3C12.15.8 10.3 0 8.15 0 5.05 0 2.35 1.8 1 4.4l2.7 2.1c.6-1.9 2.4-3.3 4.45-3.3z"></path></g></svg>