<svg xmlns:xlink="http://www.w3.org/1999/xlink" xmlns="http://www.w3.org/2000/svg" version="1.1" viewBox="0 0 24 24" class="svg-icon svg-fill" style="width: 24px; height: 24px;" width="24"  height="24" ><g fill="#000" fill-rule="nonzero"><path pid="0" d="M22.814 19.177h-.838c-.197-4.91-4.09-9.181-8.957-9.602v-.401c.494-.295.676-.823.676-1.41C13.695 6.855 13.02 6 11.96 6h-.035a1.784 1.784 0 00-1.807 1.764c0 .587.248 1.115.742 1.41v.4c-4.867.422-8.669 4.692-8.865 9.603H1.31c-.723 0-1.311.298-1.311 1.397S.588 22 1.311 22h21.503c.723 0 1.186-.523 1.186-1.426 0-.903-.463-1.397-1.186-1.397zM11.06 7.764c0-.475.388-.861.864-.861h.036c.476 0 .864.386.864.86a.856.856 0 01-.55.8.394.394 0 00-.25.367v.608h-.163V8.93c0-.162-.1-.307-.25-.367a.856.856 0 01-.55-.8zm11.423 13.401H1.53c-.288 0-.521-.196-.521-.483a.52.52 0 01.52-.519h.937l13.443-.052c.218 0 .52-.127.52-.46 0-.334-.302-.463-.52-.463H3.014c.206-4.749 4.064-8.616 8.874-8.635h.109c4.81.019 8.689 3.886 8.896 8.635h-2.226c-.218 0-.659.001-.659.462s.441.513.66.513h3.765c.287 0 .57.243.57.53 0 .286-.233.472-.52.472zM2.146 1.904a.58.58 0 01-.028-.735.406.406 0 01.633-.033c1.13 1.2 1.523 2.39 1.057 3.503-.047.113-.093.218-.167.384l-.073.163c-.62 1.396-.663 2.223.121 4.063.11.257.02.57-.203.697-.221.127-.49.022-.6-.236-.92-2.155-.858-3.327-.114-5.001l.073-.164c.07-.16.114-.257.157-.36.258-.618.013-1.357-.856-2.28zM17.146 1.904a.58.58 0 01-.028-.735.406.406 0 01.633-.033c1.13 1.2 1.523 2.39 1.057 3.503-.047.113-.093.218-.167.384l-.073.163c-.62 1.396-.663 2.223.121 4.063.11.257.02.57-.203.697-.221.127-.49.022-.6-.236-.92-2.155-.858-3.327-.114-5.001l.073-.164c.07-.16.114-.257.157-.36.258-.618.013-1.357-.856-2.28zM5.146 1.904a.58.58 0 01-.028-.735.406.406 0 01.633-.033c1.13 1.2 1.523 2.39 1.057 3.503-.047.113-.093.218-.167.384l-.073.163c-.62 1.396-.663 2.223.121 4.063.11.257.02.57-.203.697-.221.127-.49.022-.6-.236-.92-2.155-.858-3.327-.114-5.001l.073-.164c.07-.16.114-.257.157-.36.258-.618.013-1.357-.856-2.28zM20.146 1.904a.58.58 0 01-.028-.735.406.406 0 01.633-.033c1.13 1.2 1.523 2.39 1.057 3.503-.047.113-.093.218-.167.384l-.073.163c-.62 1.396-.663 2.223.121 4.063.11.257.02.57-.203.697-.221.127-.49.022-.6-.236-.92-2.155-.858-3.327-.114-5.001l.073-.164c.07-.16.114-.257.157-.36.258-.618.013-1.357-.856-2.28z"></path></g></svg>