<svg xmlns:xlink="http://www.w3.org/1999/xlink" xmlns="http://www.w3.org/2000/svg" version="1.1" viewBox="0 0 24 24" class="svg-icon svg-fill" alt="" style="width: 24px; height: 24px;" width="24"  height="24" ><g fill-rule="evenodd" fill="#555555"><path pid="0" d="M9.17 18.234a.468.468 0 100 .937.468.468 0 000-.937z" fill="#555555"></path><path pid="1" fill-rule="nonzero" d="M21.656 9.082a2.332 2.332 0 00-2.096-1.295h-1.844c.828-2.168 1.304-4.71 1.315-7.08a.469.469 0 00-.25-.417c-.95-.502-2.017-.346-2.855.418-.672.613-1.508.613-2.18 0-1.03-.94-2.415-.94-3.445 0-.672.613-1.508.613-2.18 0-.846-.771-1.962-.92-2.912-.387a.468.468 0 00-.24.412c.015 2.362.49 4.894 1.316 7.054H4.44a2.33 2.33 0 00-2.096 1.295C.12 13.625 0 13.62 0 13.88v7.778A2.346 2.346 0 002.344 24h19.312A2.346 2.346 0 0024 21.657V13.88c0-.263-.13-.277-2.344-4.797zM5.911 1.027C6.446.833 7.01.963 7.49 1.4c1.03.94 2.414.94 3.444 0 .673-.613 1.508-.613 2.18 0 1.03.94 2.415.94 3.445 0 .465-.423 1.01-.559 1.532-.39-.054 2.394-.59 4.94-1.489 7.033-.437 1.02-.948 1.898-1.486 2.555h-.806a26.084 26.084 0 001.902-4.056.468.468 0 10-.88-.321c-.559 1.53-1.377 3.216-2.121 4.377h-.741V6.381a.469.469 0 00-.938 0v4.217h-.74c-.745-1.16-1.563-2.847-2.12-4.377a.469.469 0 00-.881.32 26.01 26.01 0 001.9 4.057h-.805C8.349 9.941 7.838 9.063 7.4 8.043c-.895-2.089-1.433-4.629-1.488-7.016zM3.182 9.5a1.4 1.4 0 011.258-.777h2.236c.317.697.668 1.33 1.04 1.875h-1.34a.469.469 0 100 .937h11.25a.469.469 0 100-.937h-1.341c.372-.545.724-1.178 1.04-1.875h2.236a1.4 1.4 0 011.258.777l1.955 3.909H1.227L3.182 9.5zm19.88 12.156c0 .775-.63 1.406-1.406 1.406H2.344c-.776 0-1.406-.63-1.406-1.406v-7.31h22.125v7.31z" fill="#555555"></path><path pid="2" fill-rule="nonzero" d="M16.702 16.36H7.345a.468.468 0 00-.468.468v3.75c0 .259.21.469.468.469h9.357c.258 0 .468-.21.468-.469v-3.75a.468.468 0 00-.468-.469zm-.468 3.75H7.813v-2.813h8.42v2.812z" fill="#555555"></path><path pid="3" d="M14.83 18.234h-3.742a.468.468 0 000 .938h3.742a.468.468 0 000-.938z" fill="#555555"></path></g></svg>