<svg xmlns:xlink="http://www.w3.org/1999/xlink" xmlns="http://www.w3.org/2000/svg" version="1.1" viewBox="0 0 24 24" class="svg-icon svg-fill" alt="" style="width: 24px; height: 24px;" width="24"  height="24" ><path pid="0" fill="#000" fill-rule="nonzero" d="M15.07 11.21a4.5 4.5 0 100 6.58c-2.093-1.832-2.093-4.748 0-6.58zm.651.759c-1.628 1.432-1.628 3.63 0 5.062A4.48 4.48 0 0016.5 14.5a4.48 4.48 0 00-.779-2.531zM10 1H4.5a.5.5 0 00-.5.5V5h6V1zm1 0v4h9V1.5a.5.5 0 00-.5-.5H11zM4 6v17h16V6H4zm.5-6h15A1.5 1.5 0 0121 1.5v22a.5.5 0 01-.5.5h-17a.5.5 0 01-.5-.5v-22A1.5 1.5 0 014.5 0zM12 20a5.5 5.5 0 110-11 5.5 5.5 0 010 11zM6 3.5a.5.5 0 010-1h2a.5.5 0 010 1H6zM18 4a1 1 0 110-2 1 1 0 010 2zm-3 0a1 1 0 110-2 1 1 0 010 2z"></path></svg>