<svg xmlns:xlink="http://www.w3.org/1999/xlink" xmlns="http://www.w3.org/2000/svg" version="1.1" viewBox="0 0 24 24" class="svg-icon svg-fill" alt="" style="width: 24px; height: 24px;" width="24"  height="24" ><path pid="0" fill="#000" fill-rule="nonzero" d="M7 5.416c-1.048.18-2.054.416-3 .703V14h3V5.417zm1-.153V14h3.5V5.004c-1.197.02-2.37.107-3.5.26zm4.5-.259V14H16V5.263a29.966 29.966 0 00-3.5-.259zm4.5.412V14h3V6.12a24.728 24.728 0 00-3-.704zm4 1.034V14h2V7.304c-.622-.314-1.291-.6-2-.854zm2-.258V4.5a.5.5 0 011 0v16a.5.5 0 01-1 0V18H1v2.5a.5.5 0 11-1 0v-16a.5.5 0 111 0v1.692C3.99 4.792 7.875 4 12 4s8.011.792 11 2.192zM1 7.304V14h2V6.45c-.709.255-1.378.54-2 .854zM1 15v2h22v-2H1z"></path></svg>