<svg xmlns:xlink="http://www.w3.org/1999/xlink" xmlns="http://www.w3.org/2000/svg" version="1.1" viewBox="0 0 24 24" class="svg-icon svg-fill" alt="" style="width: 24px; height: 24px;" width="24"  height="24" ><g fill-rule="evenodd" fill="#222222"><path pid="0" fill-rule="nonzero" d="M22.527 6.497h-.366v-.202c.107-1.298-.245-2.453-.993-3.254a3.18 3.18 0 00-2.443-1.024H3.945c-1.376 0-2.496 1.102-2.496 2.457v2.023h-.023C.64 6.497 0 7.127 0 7.901v.359c0 .774.64 1.403 1.426 1.403h.023v10.865c0 1.355 1.12 2.457 2.496 2.457h12.188c1.417 0 2.208-.28 2.646-.934.417-.624.421-1.51.421-2.537h1.757c.675 0 1.204-.67 1.204-1.524V9.663h.366c.787 0 1.426-.63 1.426-1.403V7.9c0-.773-.64-1.403-1.426-1.403zM1.45 8.742h-.023a.487.487 0 01-.49-.482V7.9c0-.265.22-.482.49-.482h.023v1.324zM21.225 6.36v.137H19.21c.043-.329.15-.593.314-.77a.773.773 0 01.577-.245c.39 0 .899.276 1.125.878zm-2.96 13.126c0 1.032-.019 1.686-.267 2.058-.162.242-.52.52-1.865.52H3.945c-.86 0-1.56-.69-1.56-1.536V18.05h15.88v1.435zm0-2.356H2.384v-1.98h15.88v1.98zm.572-12.028c-.307.327-.655.949-.573 2.057v7.07H2.384v-.88h4.578a.464.464 0 00.468-.46.465.465 0 00-.468-.461H2.385V4.474c0-.847.7-1.536 1.56-1.536h14.803a2.252 2.252 0 011.731.726c.298.32.513.72.638 1.18A2.001 2.001 0 0020.1 4.56c-.487 0-.935.192-1.263.541zm2.388 12.888c0 .396-.2.603-.268.603H19.2v-8.93h2.025v8.327zm1.793-9.73c0 .266-.22.482-.49.482H19.2V7.418h3.327c.27 0 .49.217.49.483v.359z" fill="#222222"></path><path pid="1" d="M8.428 12.428h-.037a.464.464 0 00-.468.46c0 .255.21.461.468.461h.037a.464.464 0 00.468-.46.465.465 0 00-.468-.461z" fill="#222222"></path></g></svg>