<svg xmlns:xlink="http://www.w3.org/1999/xlink" xmlns="http://www.w3.org/2000/svg" version="1.1" viewBox="0 0 24 24" class="svg-icon svg-fill" alt="" style="width: 24px; height: 24px;" width="24"  height="24" ><path pid="0" d="M19.824 1.261L18.105 2.98l-3.273.399-.123.014-.096.068L2.745 12.99l-.014.014-.013.027-1.155 1.141-.303.317 8.25 8.25.317-.303 1.14-1.155.028-.014.014-.013 9.556-11.825.083-.097.014-.137.357-3.3 1.416-1.402.303-.317-2.915-2.915zm0 1.252L21.5 4.176l-.893.894-1.678-1.664.894-.894zm-1.692 1.36h.014l1.98 1.98v.014l-.234 2.324-4.056-4.056 2.296-.261zm-3.286.523l4.785 4.785-9.281 11.482-.027.04-.798.785-7.013-7.013.784-.797.042-.028 11.508-9.254zM12.11 8.824c-.555 0-1.102.235-1.526.66-.394.393-.518.844-.605 1.168-.047.17-.072.298-.138.413-.063.113-.136.23-.206.344-.345.548-.928 1.464-.206 2.186.178.179.399.3.632.344.045.233.164.45.344.632.22.22.52.344.839.344.488 0 .923-.282 1.347-.55.114-.07.23-.143.344-.206.115-.066.242-.091.412-.138.325-.087.776-.211 1.17-.605.905-.906.872-2.195-.07-3.135a2.62 2.62 0 00-.398-.33 2.62 2.62 0 00-.33-.399c-.47-.469-1.021-.728-1.609-.728zm0 .88c.337 0 .68.158.99.467.138.138.234.286.303.427.14.068.287.163.426.302.603.603.608 1.356.069 1.897-.392.392-.901.32-1.403.605-.455.26-.928.633-1.251.633a.303.303 0 01-.22-.082c-.155-.155-.143-.353.055-.55.273-.274.58-.686.825-1.046.093-.137-.028-.288-.165-.288a.148.148 0 00-.097.027c-.359.244-.773.552-1.044.825-.109.109-.217.165-.317.165a.332.332 0 01-.234-.11c-.287-.287.226-.897.55-1.471.286-.504.214-.999.606-1.389.262-.264.586-.412.907-.412zm-7.92 3.41l-.619.632.317.316.618-.632-.316-.316zm.646.646l-.632.619.316.316.632-.619-.316-.316zm.633.633l-.619.618.316.317.619-.62-.316-.316zm.632.632l-.619.633.317.316.619-.633-.317-.316zm.646.646l-.632.619.316.316.633-.619-.317-.316zm.633.633l-.619.619.316.316.62-.619-.317-.316zm.633.632l-.62.633.317.316.619-.633-.317-.316zm.646.647l-.633.618.316.317.633-.62-.316-.315zm.632.632l-.619.619.317.316.618-.619-.316-.316zm.633.633l-.619.632.316.316.619-.632-.316-.316zm.646.646l-.633.619.317.316.632-.619-.316-.316z" fill="#000" fill-rule="nonzero"></path></svg>