<svg xmlns:xlink="http://www.w3.org/1999/xlink" xmlns="http://www.w3.org/2000/svg" version="1.1" viewBox="0 0 24 24" class="svg-icon svg-fill" alt="" style="width: 24px; height: 24px;" width="24"  height="24" ><g fill="none" fill-rule="evenodd"><path pid="0" d="M0 0h24v24H0z" fill="none"></path><path pid="1" fill="#000" fill-rule="nonzero" d="M17.571 3.452L6.434 2.07a5.872 5.872 0 00-.669-.038C2.586 2.03 0 4.62 0 7.805v.12a5.78 5.78 0 002.932 5.028l1.54 6.226c.17.689.599 1.27 1.206 1.636a2.639 2.639 0 002.01.304l.042-.01a2.638 2.638 0 001.637-1.206 2.639 2.639 0 00.304-2.01l-1.112-4.495 9.012-1.12a.494.494 0 00.434-.49V3.943c0-.25-.186-.46-.434-.49zM8.711 18.13c.107.433.039.88-.191 1.262-.23.381-.595.65-1.027.757l-.043.01c-.432.107-.88.04-1.26-.19a1.656 1.656 0 01-.758-1.028l-1.36-5.495a5.737 5.737 0 002.367.215l1.131-.14 1.14 4.61zm8.305-6.78L6.32 12.68A4.786 4.786 0 01.99 7.925v-.12a4.786 4.786 0 015.328-4.754L17.016 4.38v6.97z"></path><path pid="2" fill="#000" fill-rule="nonzero" d="M2.763 7.865a3.293 3.293 0 003.29 3.29 3.293 3.293 0 003.288-3.29 3.293 3.293 0 00-3.289-3.289 3.293 3.293 0 00-3.289 3.29zm5.59 0c0 1.269-1.032 2.3-2.3 2.3a2.303 2.303 0 01-2.301-2.3c0-1.268 1.032-2.3 2.3-2.3 1.269 0 2.3 1.032 2.3 2.3z"></path><path pid="3" fill="#000" d="M19.196 6.305c.288 0 .426.155.688.476.289.356.684.843 1.455.843s1.166-.487 1.455-.843c.262-.321.4-.476.687-.476a.494.494 0 100-.99c-.77 0-1.166.487-1.455.843-.261.322-.4.477-.687.477-.288 0-.426-.155-.687-.477-.29-.356-.685-.842-1.455-.842a.494.494 0 000 .989zm4.285 1.998c-.77 0-1.166.486-1.455.842-.261.322-.4.477-.687.477-.288 0-.426-.155-.687-.477-.29-.356-.685-.842-1.455-.842a.494.494 0 100 .989c.287 0 .425.155.687.476.289.356.684.843 1.455.843s1.166-.487 1.455-.843c.262-.321.4-.476.688-.476a.494.494 0 100-.99z"></path></g></svg>