<svg xmlns:xlink="http://www.w3.org/1999/xlink" xmlns="http://www.w3.org/2000/svg" version="1.1" viewBox="0 0 24 24" class="svg-icon svg-fill" alt="" style="width: 24px; height: 24px;" width="24"  height="24" ><path pid="0" fill="#000" fill-rule="nonzero" d="M17.5 0A1.5 1.5 0 0119 1.5v21a1.5 1.5 0 01-1.5 1.5h-11A1.5 1.5 0 015 22.5v-21A1.5 1.5 0 016.5 0h11zM6 13h12V1.5a.5.5 0 00-.5-.5h-11a.5.5 0 00-.5.5V13zm0 1v8.5a.5.5 0 00.5.5h11a.5.5 0 00.5-.5V14H6zm1-6.5a.5.5 0 011 0v4a.5.5 0 11-1 0v-4zm0 8a.5.5 0 111 0v4a.5.5 0 11-1 0v-4zm8.854 6.354a.5.5 0 01-.708-.708l1-1a.5.5 0 01.708.708l-1 1zm-3 0a.5.5 0 01-.708-.708l4-4a.5.5 0 01.708.708l-4 4z"></path></svg>