<svg xmlns:xlink="http://www.w3.org/1999/xlink" xmlns="http://www.w3.org/2000/svg" version="1.1" viewBox="0 0 24 24" class="svg-icon svg-fill" alt="" style="width: 24px; height: 24px;" width="24"  height="24" ><path pid="0" fill="#000" d="M0 7.429C0 3.367 1.964 0 4.571 0H19.43C22.036 0 24 3.367 24 7.429c0 4.06-1.964 7.428-4.571 7.428H16v8.572a.571.571 0 01-.571.571H.57a.571.571 0 01-.57-.571v-16zm14.857 7.428H4.571c-1.394 0-2.604-.963-3.428-2.48v10.48h13.714v-8zm4.572-1.143c1.81 0 3.428-2.772 3.428-6.285 0-3.514-1.617-6.286-3.428-6.286H7.035c1.286 1.323 2.108 3.66 2.108 6.286 0 2.626-.822 4.962-2.108 6.285H19.43zm-14.858 0C6.383 13.714 8 10.942 8 7.43c0-3.514-1.617-6.286-3.429-6.286-1.81 0-3.428 2.772-3.428 6.286 0 3.513 1.617 6.285 3.428 6.285zm0-4c-1.007 0-1.714-1.06-1.714-2.285 0-1.226.707-2.286 1.714-2.286 1.008 0 1.715 1.06 1.715 2.286 0 1.225-.707 2.285-1.715 2.285zm0-1.143c.256 0 .572-.474.572-1.142 0-.669-.316-1.143-.572-1.143-.255 0-.571.474-.571 1.143 0 .668.316 1.142.571 1.142z" fill-rule="evenodd"></path></svg>