<svg xmlns:xlink="http://www.w3.org/1999/xlink" xmlns="http://www.w3.org/2000/svg" version="1.1" viewBox="0 0 24 24" class="svg-icon svg-fill" alt="" style="width: 24px; height: 24px;" width="24"  height="24" ><path pid="0" d="M7.381 0c-1.457 0-2.7 1.065-2.7 1.065a.48.48 0 10.6.75S6.438.96 7.381.96c1.226 0 2.28.855 2.28.855l.12.09V3.84H9.211a.48.48 0 00-.39.48v2.4h-.48a4.336 4.336 0 00-4.32 4.32v2.73a.492.492 0 000 .285V21.6a2.41 2.41 0 002.4 2.4h11.52a2.41 2.41 0 002.4-2.4v-7.59a.488.488 0 000-.195V11.04a4.336 4.336 0 00-4.32-4.32h-.48v-2.4a.48.48 0 00-.48-.48h-.48V1.92h.48a.483.483 0 00.422-.238.485.485 0 000-.484.483.483 0 00-.422-.238h-.855a.45.45 0 00-.15-.015.422.422 0 00-.045.015h-3.645a.45.45 0 00-.15-.015.422.422 0 00-.045.015h-.06C9.894.786 8.87 0 7.381 0zm3.36 1.92h2.88v1.92h-2.88V1.92zm-.96 2.88h4.8v1.92h-4.8V4.8zm-1.44 2.88h7.68c1.85 0 3.36 1.51 3.36 3.36v2.4h-5.805c.026-.154.045-.319.045-.48a2.888 2.888 0 00-2.88-2.88 2.888 2.888 0 00-2.88 2.88c0 .161.019.326.045.48H4.981v-2.4c0-1.85 1.51-3.36 3.36-3.36zm2.4 3.36c1.067 0 1.92.853 1.92 1.92s-.853 1.92-1.92 1.92a1.91 1.91 0 01-1.74-1.11v-.015l-.015-.03-.015-.015c-.002-.004.002-.011 0-.015l-.015-.015a1.944 1.944 0 01-.135-.72c0-1.067.853-1.92 1.92-1.92zm-5.76 3.36h3.27a2.89 2.89 0 002.49 1.44 2.89 2.89 0 002.49-1.44h6.15v7.2a1.44 1.44 0 01-1.44 1.44H6.421a1.44 1.44 0 01-1.44-1.44v-7.2zm10.08 1.44c-1.056 0-1.92.864-1.92 1.92s.864 1.92 1.92 1.92 1.92-.864 1.92-1.92-.864-1.92-1.92-1.92zm0 .96c.536 0 .96.424.96.96s-.424.96-.96.96a.952.952 0 01-.96-.96c0-.536.424-.96.96-.96zm-3.84 2.4c-.79 0-1.44.65-1.44 1.44 0 .79.65 1.44 1.44 1.44.79 0 1.44-.65 1.44-1.44 0-.79-.65-1.44-1.44-1.44zm0 .96c.27 0 .48.21.48.48s-.21.48-.48.48-.48-.21-.48-.48.21-.48.48-.48z" fill="#000" fill-rule="nonzero"></path></svg>