<svg xmlns:xlink="http://www.w3.org/1999/xlink" xmlns="http://www.w3.org/2000/svg" version="1.1" viewBox="0 0 24 24" class="svg-icon svg-fill" alt="" style="width: 24px; height: 24px;" width="24"  height="24" ><path pid="0" d="M23.586 3.31h-1.283A2.053 2.053 0 0022 2.585l.91-.91a.413.413 0 10-.586-.584L21.415 2a2.053 2.053 0 00-.725-.303V.414a.413.413 0 10-.828 0v1.283a2.053 2.053 0 00-.725.303l-.91-.91a.413.413 0 10-.585.586l.91.909c-.144.217-.25.462-.303.725h-1.283a.413.413 0 100 .828h1.283c.053.264.159.508.303.725l-.91.91a.413.413 0 10.586.585l.909-.91c.217.144.461.25.725.303v1.283a.413.413 0 10.828 0V5.751c.263-.053.508-.159.725-.303l.91.91a.413.413 0 00.584 0 .413.413 0 000-.586L22 4.863c.144-.217.25-.461.303-.725h1.283a.413.413 0 100-.828zm-3.31 1.656a1.243 1.243 0 01-1.242-1.242 1.243 1.243 0 012.483 0c0 .685-.557 1.242-1.241 1.242zM23.586 23h-1.413c-.555-.783-2.951-3.138-10.202-3.138-.412 0-.774.001-1.187.017l-.025.008L8.72 12.07a1.87 1.87 0 011.068-.761 1.93 1.93 0 011.47.193c.006.003.016.004.022.007.018.01.038.016.057.022a.44.44 0 00.062.018c.006 0 .012.004.018.005a.402.402 0 00.054.003l.014-.002c.016 0 .032-.004.047-.006a.396.396 0 00.171-.066c.007-.005.014-.007.02-.011.007-.005.01-.012.016-.017a.389.389 0 00.05-.05c.01-.013.02-.024.028-.037l.013-.018a1.914 1.914 0 011.17-.898 1.917 1.917 0 011.462.193.414.414 0 00.606-.465 6.986 6.986 0 00-3.278-4.272 6.88 6.88 0 00-4.898-.781l-.327-1.218a.456.456 0 00-.541-.302c-.221.06-.386.266-.327.486l.327 1.219c-1.638.542-2.973 1.664-3.843 3.171a6.985 6.985 0 00-.703 5.338.413.413 0 00.758.1 1.93 1.93 0 012.633-.706c.005.004.012.004.018.008a.366.366 0 00.055.021c.02.007.04.014.061.018l.018.005a.402.402 0 00.054.004l.014-.002c.016 0 .032-.004.047-.006a.401.401 0 00.11-.032.397.397 0 00.061-.035l.02-.01c.006-.005.01-.012.015-.017a.43.43 0 00.05-.052c.01-.012.02-.023.029-.036.004-.006.009-.01.013-.018.504-.873 1.456-1.194 2.353-.769l2.048 7.64C4.146 20.35 2.338 22.291 1.84 23H.414c-.229 0-.414.27-.414.499 0 .229.185.501.414.501h23.172c.229 0 .376-.272.376-.501 0-.229-.147-.499-.376-.499zM4.722 6.929c-.045.107-.083.223-.123.34-.019.056-.041.109-.059.167a6.533 6.533 0 00-.227 1.079c-.008.059-.013.12-.02.18a8.967 8.967 0 00-.034.36 10.51 10.51 0 00-.012 1.152l.01.23c.009.131.02.264.034.398.007.066.011.132.02.199.022.2.049.4.082.602l.015.081c.027.158.055.317.088.476a2.767 2.767 0 00-2.378.597 6.157 6.157 0 01.783-3.893A6.183 6.183 0 014.733 6.9l-.01.029zm6.657-.304a6.16 6.16 0 012.624 2.979 2.74 2.74 0 00-1.216.049 2.74 2.74 0 00-1.142.622c-.05-.154-.106-.305-.161-.456-.01-.025-.018-.051-.027-.076-.073-.193-.15-.381-.231-.566l-.076-.166a12.267 12.267 0 00-.178-.379c-.032-.065-.066-.129-.1-.193a11.056 11.056 0 00-.286-.517 9.17 9.17 0 00-.189-.304 8.453 8.453 0 00-.33-.478c-.033-.046-.066-.094-.1-.138a7.446 7.446 0 00-.333-.404 6.269 6.269 0 00-.404-.417c-.049-.046-.098-.083-.147-.126-.088-.077-.176-.156-.264-.223l-.025-.02c.9.075 1.78.348 2.585.813zm-6.085 5.327c-.02-.1-.04-.2-.057-.298l-.03-.167a12.41 12.41 0 01-.078-.557l-.007-.082a10.72 10.72 0 01-.04-.466 10.254 10.254 0 01-.019-.537v-.198c.001-.111.004-.22.01-.328.003-.064.005-.128.01-.19.008-.115.02-.226.031-.336.006-.052.01-.106.018-.158a5.506 5.506 0 01.173-.859c.011-.04.024-.078.036-.118a4.527 4.527 0 01.13-.365c.03-.074.062-.144.095-.212.016-.035.032-.07.05-.103.044-.084.09-.163.139-.237.008-.011.015-.025.022-.037a2.22 2.22 0 01.18-.229c.019-.023.04-.042.06-.063a1.852 1.852 0 01.213-.187c.02-.015-.075-.033-.055-.046l1.378 5.145c-.843-.175-1.61.063-2.259.628zm2.502-3.31l-.72-2.686c.026.002.063.017.089.02a1.35 1.35 0 01.278.057c.026.007.052.013.079.022.089.03.18.065.271.11l.032.017c.081.041.163.087.244.14.031.019.063.041.094.062a3.597 3.597 0 01.484.389c.03.028.06.054.09.084a5.52 5.52 0 01.579.657c.032.041.063.086.095.13a7.76 7.76 0 01.57.886c.056.1.111.202.165.306l.087.168c.067.136.132.276.195.418l.037.08c.073.168.143.342.21.518.022.056.041.114.062.171.033.091.065.184.096.276a2.718 2.718 0 00-1.243.043 2.763 2.763 0 00-1.136.589l-.658-2.457zM3.034 23c.94-.898 3.309-2.31 8.966-2.31 5.633 0 8.053 1.412 9 2.31H3.034z" fill="#222222"></path></svg>