<svg xmlns:xlink="http://www.w3.org/1999/xlink" xmlns="http://www.w3.org/2000/svg" version="1.1" viewBox="0 0 24 24" class="svg-icon svg-fill" alt="" style="width: 24px; height: 24px;" width="24"  height="24" ><g fill-rule="evenodd" fill="#222222"><path pid="0" fill-rule="nonzero" d="M23.485 13.987H18.2V6.87h.257a.468.468 0 000-.935h-.264A6.23 6.23 0 0011.977 0 6.23 6.23 0 005.76 5.936h-.264a.468.468 0 000 .935h.257v7.116H.468a.468.468 0 00-.468.468v9.03c0 .259.21.468.468.468h23.017c.259 0 .468-.21.468-.468v-9.03a.468.468 0 00-.468-.468zm-5.286.936h1.941v5.287H18.2v-5.287zM12.444.957a5.294 5.294 0 014.811 4.979h-1.608a3.708 3.708 0 00-3.203-3.203V.957zm0 2.721a2.772 2.772 0 012.258 2.258h-2.258V3.678zm0 5.543V6.87h3.269l-.89.89a.468.468 0 00.662.662l1.551-1.552h.227v7.116h-4.157l3.266-3.266a.468.468 0 00-.662-.661l-3.266 3.265V9.221zm4.82 5.702v5.287h-1.942v-5.287h1.941zm-4.82 0h1.942v5.287h-1.942v-5.287zM11.51.957v1.776a3.708 3.708 0 00-3.203 3.203H6.698a5.295 5.295 0 014.81-4.98zm0 2.721v2.258H9.25a2.772 2.772 0 012.258-2.258zm-4.82 8.427l1.551-1.552a.468.468 0 00-.661-.661l-.89.89v-3.91h4.819v2.155L9.25 11.285a.468.468 0 00.662.661l1.596-1.596v3.637H6.69v-1.882zm4.819 2.818v5.287H9.567v-5.287h1.942zm-4.819 0h1.942v5.287H6.69v-5.287zm-2.877 0h1.941v5.287H3.813v-5.287zm-2.877 0h1.941v5.287H.936v-5.287zm0 8.095v-1.872h22.082v1.872H.936zm22.082-2.808h-1.942v-5.287h1.942v5.287z" fill="#222222"></path><path pid="1" d="M9.202 9.593a.468.468 0 00-.666-.658l-.008.008a.468.468 0 00.666.658l.008-.008zm4.671-.882l-.008.008a.468.468 0 00.661.662l.008-.008a.468.468 0 00-.661-.662z" fill="#222222"></path></g></svg>