<svg xmlns:xlink="http://www.w3.org/1999/xlink" xmlns="http://www.w3.org/2000/svg" version="1.1" viewBox="0 0 24 24" class="svg-icon svg-fill" alt="" style="width: 24px; height: 24px;" width="24"  height="24" ><g fill-rule="evenodd" fill="#555555"><path pid="0" d="M7.2 16.902a2.105 2.105 0 01-1.654-.57 1.804 1.804 0 01-.351-1.328.393.393 0 00-.331-.443.4.4 0 00-.458.315 2.576 2.576 0 00.526 1.96c.488.564 1.251.85 2.268.85.22 0 .4-.175.4-.392a.396.396 0 00-.4-.392zm2 0h-.4c-.22 0-.4.176-.4.392 0 .217.18.392.4.392h.4c.22 0 .4-.175.4-.392a.396.396 0 00-.4-.392zm7.6-5.49c.61-.059 1.215.15 1.654.569.288.381.414.858.351 1.329a.393.393 0 00.395.455.398.398 0 00.394-.328 2.573 2.573 0 00-.526-1.959c-.488-.564-1.251-.85-2.268-.85-.22 0-.4.175-.4.392 0 .216.18.392.4.392zm-1.2-.392a.396.396 0 00-.4-.393h-.4c-.22 0-.4.176-.4.393 0 .216.18.392.4.392h.4c.22 0 .4-.176.4-.392z" fill="#555555"></path><path pid="1" fill-rule="nonzero" d="M2 9.451c1.104 0 2-.878 2-1.96 0-1.084-.896-1.962-2-1.962S0 6.407 0 7.49c.001 1.083.896 1.96 2 1.961zm0-3.137c.663 0 1.2.526 1.2 1.176 0 .65-.537 1.177-1.2 1.177-.663 0-1.2-.527-1.2-1.177S1.337 6.314 2 6.314zm8.8.392c0 .866.716 1.569 1.6 1.569.884 0 1.6-.703 1.6-1.57 0-.865-.716-1.568-1.6-1.568-.884 0-1.6.703-1.6 1.569zm2.4 0a.792.792 0 01-.8.784.792.792 0 01-.8-.784c0-.433.358-.784.8-.784.442 0 .8.35.8.784zM4.8 4.745c0 1.516 1.254 2.745 2.8 2.745 1.546 0 2.8-1.229 2.8-2.745S9.146 2 7.6 2c-1.546.002-2.798 1.23-2.8 2.745zm4.8 0c0 1.083-.896 1.96-2 1.96s-2-.877-2-1.96.896-1.96 2-1.96 1.999.878 2 1.96z" fill="#555555"></path><path pid="2" d="M7.197 5.014a.722.722 0 01-.017-.54.39.39 0 00-.255-.495.402.402 0 00-.505.25c-.145.413-.1.867.127 1.243a1.22 1.22 0 001.053.45c.22 0 .4-.176.4-.393a.396.396 0 00-.4-.392.527.527 0 01-.403-.123z" fill="#555555"></path><path pid="3" fill-rule="nonzero" d="M21.6 16.118a2.38 2.38 0 00-.431.042c.02-.144.03-.29.031-.435v-3.137c-.002-1.948-1.613-3.527-3.6-3.53H6.4c-1.987.003-3.598 1.582-3.6 3.53v3.137c.002 1.949 1.613 3.528 3.6 3.53h6.54a2.397 2.397 0 002.26 1.569c.349 0 .694-.076 1.008-.224A2.4 2.4 0 0018.4 22a2.4 2.4 0 002.192-1.4c.314.148.66.224 1.008.224 1.325 0 2.4-1.054 2.4-2.353 0-1.3-1.075-2.353-2.4-2.353zm-8.8 2.353H6.4c-1.546-.002-2.798-1.23-2.8-2.746v-3.137c.002-1.515 1.254-2.743 2.8-2.745h11.2c1.546.002 2.798 1.23 2.8 2.745v3.137c0 .086-.01.17-.018.253a2.409 2.409 0 00-2.196-1.028 2.39 2.39 0 00-1.978 1.39 2.375 2.375 0 00-1.008-.222c-1.325.001-2.399 1.054-2.4 2.353zm8.8 1.568a1.598 1.598 0 01-.988-.345.406.406 0 00-.387-.059.394.394 0 00-.253.294 1.588 1.588 0 01-1.57 1.286 1.588 1.588 0 01-1.57-1.286.395.395 0 00-.253-.294.406.406 0 00-.387.059c-.28.223-.63.345-.992.345-.884 0-1.6-.702-1.6-1.568 0-.867.716-1.569 1.6-1.569.36.001.708.123.988.345.11.085.256.107.387.06a.394.394 0 00.253-.295 1.588 1.588 0 011.57-1.285c.772 0 1.433.54 1.57 1.285a.395.395 0 00.253.294c.13.048.278.026.387-.059.28-.222.63-.344.992-.345.884 0 1.6.702 1.6 1.569 0 .866-.716 1.568-1.6 1.568z" fill="#555555"></path></g></svg>