<svg xmlns:xlink="http://www.w3.org/1999/xlink" xmlns="http://www.w3.org/2000/svg" version="1.1" viewBox="0 0 24 24" class="svg-icon svg-fill" alt="" style="width: 24px; height: 24px;" width="24"  height="24" ><path pid="0" d="M16.071 6.881c0-.546-.213-1.06-.6-1.447l-1.516-1.517a1.262 1.262 0 01-.372-.898V2.75a.804.804 0 00.415-.702V.803A.804.804 0 0013.194 0H9.877a.804.804 0 00-.804.803v1.245c0 .302.168.565.415.702v.27c0 .338-.132.657-.372.897L7.6 5.434c-.387.386-.6.9-.6 1.447v7.607c0 .32.124.612.327.83a1.213 1.213 0 000 1.658 1.213 1.213 0 000 1.659 1.213 1.213 0 000 1.659 1.21 1.21 0 00-.327.83v.828A2.05 2.05 0 009.048 24h4.976a2.05 2.05 0 002.047-2.048v-.829c0-.32-.124-.612-.327-.83a1.213 1.213 0 000-1.658 1.213 1.213 0 000-1.659 1.213 1.213 0 000-1.659 1.21 1.21 0 00.327-.829V6.881zm-8.064 0c0-.339.132-.658.372-.897l1.287-1.517c.387-.387.6-.75.6-1.297v-.168h2.339v.168c0 .547.383 1.05.6 1.297l1.276 1.517c.24.24.524.558.524.897v6.678a.442.442 0 01-.441.441H8.218c-.243 0-.211-.198-.211-.44V6.88zm6.995 8.635c0 .339-.19.484-.433.484h-6.16c-.242 0-.405-.157-.405-.484 0-.328.163-.512.406-.512h6.159c.243 0 .433.172.433.512zm-.001 1.957c0 .367-.199.521-.442.521H8.45c-.243 0-.44-.265-.44-.557 0-.291.197-.44.44-.44h6.036c.243 0 .516.108.516.476zm-.009 2.027c0 .37-.195.503-.438.503H8.457c-.243 0-.448-.15-.448-.539 0-.388.271-.467.514-.467h6.03c.244 0 .44.133.44.503zm.013 2.596c0 .7-.803.903-1.503.903H9.28c-.7 0-1.291-.16-1.291-.86v-.701c0-.243.219-.438.462-.438h5.88c.47 0 .674.182.674.478v.618z" fill="#222222"></path><path pid="1" d="M11.536 13.218a2.05 2.05 0 002.047-2.047c0-.988-1.439-3.121-1.727-3.539a.389.389 0 00-.64 0c-.289.418-1.728 2.551-1.728 3.539a2.05 2.05 0 002.048 2.047zm-.496-3.85c.176-.303.353-.587.497-.811.604.94 1.269 2.15 1.269 2.614 0 .7-.57 1.27-1.27 1.27-.7 0-1.27-.57-1.27-1.27 0-.14.075-.598.774-1.803z" fill="#222222"></path></svg>